<svg xmlns="http://www.w3.org/2000/svg" xmlns:xlink="http://www.w3.org/1999/xlink"><symbol fill="currentColor" viewBox="0 0 105 40" id="2gis"><path d="M39.459 14c.321.142.407.374.525.669 1.386 3.461 1.27 8.08.16 11.56-.407 1.278-.992 2.457-1.573 3.669-1.024.092-2.124-.006-3.158-.012a532.756 532.756 0 0 0-6.384.001c-.678-.02-1.355.054-2.029.113 4.429-3.806 9.962-7.563 11.863-13.15.319-.939.458-1.878.596-2.85ZM82.49 5.002c.124-.009.243.02.365.044.016.027.03.055.043.084.13.304.125 25.846.044 28.31a1.518 1.518 0 0 1-.097.537c-.352.059-.825-.013-1.193-.018-1.068-.012-2.14-.043-3.207.017l-.143-.01c-.034-.05-.107-.132-.125-.186-.194-.584-.033-4.197-.034-5.08l.001-15.56c0-2.538.133-5.16-.008-7.69A.871.871 0 0 0 78 5.02c1.492.006 3 .058 4.49-.018ZM64.11 4.034c1.932-.127 4.001.083 5.749.959 1.763.883 2.962 2.344 3.576 4.196.258.778.809 3.448.444 4.162-1.562-.19-3.294-.03-4.872-.002a.971.971 0 0 0 .048-.103c.244-.628-.175-2.211-.448-2.836a3.516 3.516 0 0 0-1.995-1.91c-1.102-.42-2.523-.385-3.6.097-1.034.461-1.804 1.36-2.202 2.401-.262.689-.41 1.434-.488 2.164-.202 1.884-.115 3.84-.115 5.731 0 1.655-.097 3.387.11 5.03a6.65 6.65 0 0 0 .522 1.934c.483 1.062 1.293 1.848 2.395 2.26 1.464.547 3.798.45 5.205-.182.034-.07.064-.143.083-.218.116-.453.064-4.78-.12-5.106l-3.908-.004a.953.953 0 0 0 .081-.236c.109-.574.164-3.572-.119-3.994a.882.882 0 0 1 .088-.13.62.62 0 0 1 .202-.139c.77-.244 7.143.061 8.73-.08.043.096.076.198.089.301.166 1.335.025 3.663.025 5.108 0 2.146.162 4.385-.013 6.516-.023.271-.058.489-.238.706-1.18 1.427-4.55 2.08-6.3 2.245-3.053.288-6.561.015-9.018-2.006-1.78-1.465-2.601-3.572-2.81-5.808-.122-1.317-.047-2.66-.07-3.982-.06-3.206-.408-6.694.282-9.837.33-1.499.944-2.93 1.94-4.114 1.728-2.055 4.127-2.885 6.746-3.123ZM91.833 23.958c.44.75-.282 2.795.978 4.402a3.635 3.635 0 0 0 2.502 1.396c1.164.138 2.398-.068 3.335-.812a3.69 3.69 0 0 0 .947-1.118 3.614 3.614 0 0 0 .29-.676 3.793 3.793 0 0 0 .152-.72c.442-3.943-4.822-4.802-7.493-6.08-1.224-.585-2.396-1.37-3.252-2.44-1.37-1.714-1.729-4.141-1.484-6.27.22-1.914 1.073-3.619 2.594-4.824 2.089-1.655 5.112-2.024 7.685-1.719 1.997.237 3.879 1.04 5.144 2.652.704.896 1.737 3.225 1.605 4.32.191.44.21 1.66.03 2.116a1.405 1.405 0 0 1-.028.066c.181.393.213 9.077.044 9.508a.864.864 0 0 1-.06.128c.22.428.228 3.195.068 3.683-.016.05-.033.1-.054.148.014.314-.112.654-.212.949-.646 1.909-1.918 3.401-3.731 4.29-2.553 1.252-6.116 1.352-8.788.434-3.05-1.047-4.766-3.67-4.924-6.842-.033-.642.11-1.915-.171-2.475l-.01-.019c1.537-.087 3.346.194 4.833-.097Zm12.989-.071a.864.864 0 0 0 .06-.128c.169-.431.137-9.115-.044-9.508-.603.25-3.808.074-4.73.125l.008-.02c.252-.708-.176-2.636-.507-3.313-.395-.808-1.039-1.403-1.894-1.69-.972-.328-2.262-.254-3.177.21a3.24 3.24 0 0 0-1.013.798 3.214 3.214 0 0 0-.512.823c-.043.1-.081.2-.114.304-.297.916-.27 1.95.18 2.811 1.69 3.233 8.74 2.453 11.168 7.658.223.48.625 1.4.575 1.93Z"/><path d="m17.187 40-.02-.01c-.749-.37-1.833-.504-2.66-.723-.605-.16-1.191-.39-1.771-.622a20.937 20.937 0 0 1-2.471-1.181 20.738 20.738 0 0 1-2.287-1.496 20.168 20.168 0 0 1-2.061-1.784 20.326 20.326 0 0 1-2.125-2.474 20.24 20.24 0 0 1-1.441-2.296 19.711 19.711 0 0 1-2.189-6.816 19.741 19.741 0 0 1 1.185-9.697 19.863 19.863 0 0 1 .807-1.807c2.393-4.695 6.5-8.34 11.596-10A20.98 20.98 0 0 1 19.85.01a21.08 21.08 0 0 1 8.123 1.38 20.921 20.921 0 0 1 1.891.835c.927.456 2.3 1.108 3.001 1.864l.03.164c-.218.067-2.006-.22-2.468-.247-3.88-.224-7.74 1.396-9.578 4.88-.82 1.553-1.261 3.5-1.193 5.25.03.75.163 1.502.17 2.25 1.241-.077 3.87-.132 5.071.007-.388-1.694-.016-4.188.936-5.67a3.779 3.779 0 0 1 2.434-1.688c1.156-.253 2.56-.185 3.578.448.835.52 1.359 1.342 1.567 2.28.56 2.522-.477 4.838-1.843 6.915-2.207 3.357-5.595 6.382-8.64 9.01-1.087.938-2.818 2.216-3.688 3.291-.053 1.359.05 2.71.042 4.067l9.67-.001c1.656.001 3.407.118 5.046-.081-1.392 1.815-5.26 3.683-7.466 4.3-.713.2-2.214.408-2.79.737h-6.557Z"/></symbol><symbol fill="currentColor" viewBox="0 0 105 40" id="2gis-green"><path d="M39.459 14c.321.142.407.374.525.669 1.386 3.461 1.27 8.08.16 11.56-.407 1.278-.992 2.457-1.573 3.669-1.024.092-2.124-.006-3.158-.012a532.756 532.756 0 0 0-6.384.001c-.678-.02-1.355.054-2.029.113 4.429-3.806 9.962-7.563 11.863-13.15.319-.939.458-1.878.596-2.85ZM82.49 5.002c.124-.009.243.02.365.044.016.027.03.055.043.084.13.304.125 25.846.044 28.31a1.518 1.518 0 0 1-.097.537c-.352.059-.825-.013-1.193-.018-1.068-.012-2.14-.043-3.207.017l-.143-.01c-.034-.05-.107-.132-.125-.186-.194-.584-.033-4.197-.034-5.08l.001-15.56c0-2.538.133-5.16-.008-7.69A.871.871 0 0 0 78 5.02c1.492.006 3 .058 4.49-.018ZM64.11 5.034c1.932-.127 4.001.083 5.749.959 1.763.883 2.962 2.344 3.576 4.196.258.778.809 3.448.444 4.162-1.562-.19-3.294-.03-4.872-.002a.971.971 0 0 0 .048-.103c.244-.628-.175-2.211-.448-2.836a3.516 3.516 0 0 0-1.995-1.91c-1.102-.42-2.523-.385-3.6.097-1.034.461-1.804 1.36-2.202 2.401-.262.689-.41 1.434-.488 2.164-.202 1.884-.115 3.84-.115 5.731 0 1.655-.097 3.387.11 5.03a6.65 6.65 0 0 0 .522 1.934c.483 1.062 1.293 1.848 2.395 2.26 1.464.547 3.798.45 5.205-.182.034-.07.064-.143.083-.218.116-.453.064-4.78-.12-5.106l-3.908-.004a.953.953 0 0 0 .081-.236c.109-.574.164-3.572-.119-3.994a.882.882 0 0 1 .088-.13.62.62 0 0 1 .202-.139c.77-.244 7.143.061 8.73-.08.043.096.076.198.089.301.166 1.335.025 3.663.025 5.108 0 2.146.162 4.385-.013 6.516-.023.271-.058.489-.238.706-1.18 1.427-4.55 2.08-6.3 2.245-3.053.288-6.561.015-9.018-2.006-1.78-1.465-2.601-3.572-2.81-5.808-.122-1.317-.047-2.66-.07-3.982-.06-3.206-.408-6.694.282-9.837.33-1.499.944-2.93 1.94-4.114 1.728-2.055 4.127-2.885 6.746-3.123ZM91.833 23.958c.44.75-.282 2.795.978 4.402a3.635 3.635 0 0 0 2.502 1.396c1.164.138 2.398-.068 3.335-.812a3.69 3.69 0 0 0 .947-1.118 3.614 3.614 0 0 0 .29-.676 3.793 3.793 0 0 0 .152-.72c.442-3.943-4.822-4.802-7.493-6.08-1.224-.585-2.396-1.37-3.252-2.44-1.37-1.714-1.729-4.141-1.484-6.27.22-1.914 1.073-3.619 2.594-4.824 2.089-1.655 5.112-2.024 7.685-1.719 1.997.237 3.879 1.04 5.144 2.652.704.896 1.737 3.225 1.605 4.32.191.44.21 1.66.03 2.116a1.405 1.405 0 0 1-.028.066c.181.393.213 9.077.044 9.508a.864.864 0 0 1-.06.128c.22.428.228 3.195.068 3.683-.016.05-.033.1-.054.148.014.314-.112.654-.212.949-.646 1.909-1.918 3.401-3.731 4.29-2.553 1.252-6.116 1.352-8.788.434-3.05-1.047-4.766-3.67-4.924-6.842-.033-.642.11-1.915-.171-2.475l-.01-.019c1.537-.087 3.346.194 4.833-.097Zm12.989-.071a.864.864 0 0 0 .06-.128c.169-.431.137-9.115-.044-9.508-.603.25-3.808.074-4.73.125l.008-.02c.252-.708-.176-2.636-.507-3.313-.395-.808-1.039-1.403-1.894-1.69-.972-.328-2.262-.254-3.177.21a3.24 3.24 0 0 0-1.013.798 3.214 3.214 0 0 0-.512.823c-.043.1-.081.2-.114.304-.297.916-.27 1.95.18 2.811 1.69 3.233 8.74 2.453 11.168 7.658.223.48.625 1.4.575 1.93Z"/><path d="m17.187 40-.02-.01c-.749-.37-1.833-.504-2.66-.723-.605-.16-1.191-.39-1.771-.622a20.937 20.937 0 0 1-2.471-1.181 20.738 20.738 0 0 1-2.287-1.496 20.168 20.168 0 0 1-2.061-1.784 20.326 20.326 0 0 1-2.125-2.474 20.24 20.24 0 0 1-1.441-2.296 19.711 19.711 0 0 1-2.189-6.816 19.741 19.741 0 0 1 1.185-9.697 19.863 19.863 0 0 1 .807-1.807c2.393-4.695 6.5-8.34 11.596-10A20.98 20.98 0 0 1 19.85.01a21.08 21.08 0 0 1 8.123 1.38 20.921 20.921 0 0 1 1.891.835c.927.456 2.3 1.108 3.001 1.864l.03.164c-.218.067-2.006-.22-2.468-.247-3.88-.224-7.74 1.396-9.578 4.88-.82 1.553-1.261 3.5-1.193 5.25.03.75.163 1.502.17 2.25 1.241-.077 3.87-.132 5.071.007-.388-1.694-.016-4.188.936-5.67a3.779 3.779 0 0 1 2.434-1.688c1.156-.253 2.56-.185 3.578.448.835.52 1.359 1.342 1.567 2.28.56 2.522-.477 4.838-1.843 6.915-2.207 3.357-5.595 6.382-8.64 9.01-1.087.938-2.818 2.216-3.688 3.291-.053 1.359.05 2.71.042 4.067l9.67-.001c1.656.001 3.407.118 5.046-.081-1.392 1.815-5.26 3.683-7.466 4.3-.713.2-2.214.408-2.79.737h-6.557Z"/></symbol><symbol fill="currentColor" viewBox="0 0 12 8" id="arrow-down"><path d="m1 1 5 6 5-6" stroke="#1F472B" stroke-width="2" stroke-linecap="round" stroke-linejoin="round"/></symbol><symbol fill="currentColor" viewBox="0 0 24 8" id="arrow-left"><path d="M23 4.5a.5.5 0 0 0 0-1v1ZM.646 3.646a.5.5 0 0 0 0 .708l3.182 3.182a.5.5 0 1 0 .708-.708L1.707 4l2.829-2.828a.5.5 0 1 0-.708-.708L.646 3.646ZM23 3.5H1v1h22v-1Z"/></symbol><symbol fill="currentColor" viewBox="0 0 24 8" id="arrow-right"><path d="M1 3.5a.5.5 0 0 0 0 1v-1Zm22.354.854a.5.5 0 0 0 0-.708L20.172.464a.5.5 0 1 0-.707.708L22.293 4l-2.828 2.828a.5.5 0 1 0 .707.708l3.182-3.182ZM1 4.5h22v-1H1v1Z"/></symbol><symbol fill="currentColor" viewBox="0 0 18 18" id="arrow-top-right"><path d="M.868 16.425a.5.5 0 1 0 .707.707l-.707-.707Zm16.41-15.203a.5.5 0 0 0-.5-.5h-4.5a.5.5 0 1 0 0 1h4v4a.5.5 0 1 0 1 0v-4.5ZM1.575 17.132 17.132 1.576l-.707-.708L.868 16.425l.707.707Z"/></symbol><symbol fill="currentColor" viewBox="0 0 24 6" id="burger"><path stroke="#FFFDFA" d="M0 .5h24M0 5.5h24"/></symbol><symbol fill="currentColor" viewBox="0 0 30 30" id="clock"><path d="M15.494 8a.51.51 0 0 0-.492.525v7.342c-.598.22-.998.806-.998 1.464 0 .231.05.46.147.668l-2.997 3.11a.53.53 0 0 0-.138.504.509.509 0 0 0 .357.37.487.487 0 0 0 .487-.142l2.997-3.11c.201.101.422.153.645.154.827 0 1.498-.696 1.498-1.554 0-.658-.4-1.244-.999-1.463V8.525a.528.528 0 0 0-.146-.374.49.49 0 0 0-.361-.15Z"/><path d="M15.494 8a.51.51 0 0 0-.492.525v7.342c-.598.22-.998.806-.998 1.464 0 .231.05.46.147.668l-2.997 3.11a.53.53 0 0 0-.138.504.509.509 0 0 0 .357.37.487.487 0 0 0 .487-.142l2.997-3.11c.201.101.422.153.645.154.827 0 1.498-.696 1.498-1.554 0-.658-.4-1.244-.999-1.463V8.525a.528.528 0 0 0-.146-.374.49.49 0 0 0-.361-.15Z" stroke="#FFFDFA"/><path d="M15 0C6.714 0 0 6.714 0 15s6.714 15 15 15 15-6.714 15-15S23.286 0 15 0Zm0 2.5c6.904 0 12.5 5.596 12.5 12.5S21.904 27.5 15 27.5 2.5 21.904 2.5 15 8.096 2.5 15 2.5Z"/></symbol><symbol fill="currentColor" viewBox="0 0 63 22" id="developer-icon"><g clip-path="url(#ia)"><path d="M62 1H2v21h60V1Z" stroke="#fff"/><path d="M11.07 6.463v8.421H10V6.463h1.07Zm5.212 0v8.421h-1.053V6.463h1.053Zm2.592 0v.914h-6.232v-.914h6.232Zm10.902 0v8.421H28.7l-4.06-6.495v6.495h-1.07V6.463h1.07l4.077 6.513V6.463h1.058ZM34.456 15c-.417 0-.795-.073-1.135-.22a2.576 2.576 0 0 1-.87-.63c-.24-.27-.424-.59-.554-.96a3.661 3.661 0 0 1-.194-1.215v-.243c0-.509.072-.962.216-1.36.144-.4.34-.74.588-1.017a2.52 2.52 0 0 1 .842-.63c.314-.143.639-.215.975-.215.428 0 .797.077 1.108.232.314.154.57.37.77.647.2.274.347.598.443.972.096.37.144.775.144 1.215v.48h-4.476v-.873h3.451v-.081a2.768 2.768 0 0 0-.166-.81 1.455 1.455 0 0 0-.443-.648c-.203-.17-.48-.255-.831-.255a1.387 1.387 0 0 0-1.147.607c-.14.201-.25.446-.327.735-.077.29-.116.623-.116 1.001v.243c0 .297.039.576.116.839.081.258.198.486.35.682.154.197.34.351.559.463.221.112.472.168.753.168.362 0 .669-.078.92-.232.25-.154.47-.36.659-.619l.62.515c-.129.204-.293.4-.493.584-.2.185-.445.336-.736.451-.288.116-.63.174-1.025.174Zm5.008-5.39v5.274H38.44V8.626h.998l.027.983Zm1.873-1.019-.006.995a1.418 1.418 0 0 0-.244-.035 2.487 2.487 0 0 0-.254-.011c-.237 0-.445.038-.626.116a1.295 1.295 0 0 0-.46.323 1.57 1.57 0 0 0-.3.498c-.07.189-.116.397-.138.625l-.288.173c0-.378.035-.733.105-1.064a2.97 2.97 0 0 1 .338-.88c.152-.258.344-.458.577-.6a1.566 1.566 0 0 1 1.096-.192.73.73 0 0 1 .2.052Zm5.068 5.079V6h1.03v8.884h-.941l-.089-1.214Zm-4.033-1.845v-.122c0-.478.056-.912.166-1.301.115-.394.276-.731.482-1.013.211-.281.46-.497.748-.647.292-.155.617-.232.975-.232.377 0 .706.07.986.208.285.135.525.334.72.596.2.259.357.57.471.937.115.367.194.781.239 1.244v.532a5.66 5.66 0 0 1-.239 1.238 2.964 2.964 0 0 1-.47.937 1.987 1.987 0 0 1-.72.596 2.303 2.303 0 0 1-.998.202c-.35 0-.672-.08-.964-.237a2.305 2.305 0 0 1-.748-.665 3.3 3.3 0 0 1-.482-1.007 4.614 4.614 0 0 1-.166-1.266Zm1.03-.122v.122c0 .312.03.605.09.879.062.273.158.514.287.723.13.208.294.372.493.491.2.116.438.174.715.174.34 0 .619-.075.837-.226.221-.15.398-.349.531-.595.133-.247.237-.515.31-.804v-1.394a3.188 3.188 0 0 0-.193-.614 1.903 1.903 0 0 0-.322-.532 1.396 1.396 0 0 0-.481-.376 1.505 1.505 0 0 0-.67-.138c-.282 0-.523.061-.727.185-.199.12-.363.285-.493.497-.129.208-.225.451-.288.729-.059.274-.088.567-.088.88Zm9.573 1.521a.932.932 0 0 0-.1-.428c-.062-.135-.194-.256-.393-.364-.196-.112-.491-.208-.886-.29a6.804 6.804 0 0 1-.903-.26 2.697 2.697 0 0 1-.682-.364 1.51 1.51 0 0 1-.426-.503c-.1-.193-.15-.419-.15-.677 0-.247.052-.48.155-.7.107-.22.257-.414.449-.584.196-.17.43-.303.704-.4.273-.095.578-.144.914-.144.48 0 .89.089 1.23.266.34.178.6.415.78.712.182.293.272.619.272.977h-1.025a.947.947 0 0 0-.15-.503 1.124 1.124 0 0 0-.426-.41 1.33 1.33 0 0 0-.681-.163c-.285 0-.516.047-.693.14a.901.901 0 0 0-.382.34.889.889 0 0 0-.061.752.68.68 0 0 0 .21.25c.1.072.24.142.422.207.18.066.411.132.692.197.491.116.896.255 1.213.416.318.162.554.361.71.596.154.236.232.52.232.856a1.694 1.694 0 0 1-.637 1.342c-.203.162-.447.29-.731.382-.281.089-.597.133-.948.133-.528 0-.975-.098-1.34-.295a2.107 2.107 0 0 1-.831-.764 1.886 1.886 0 0 1-.283-.989h1.03c.015.293.097.527.244.7.148.17.329.292.543.365.214.07.427.104.637.104.281 0 .516-.039.704-.116a.982.982 0 0 0 .438-.318c.1-.135.15-.29.15-.463Z"/></g><defs><clipPath id="ia"><path d="M0 0h63v22H0z"/></clipPath></defs></symbol><symbol fill="currentColor" viewBox="0 0 19 19" id="instagram"><path d="M1 9.5c0-4.007 0-6.01 1.245-7.255C3.489 1 5.492 1 9.5 1c4.007 0 6.01 0 7.255 1.245C18 3.489 18 5.492 18 9.5c0 4.007 0 6.01-1.245 7.255C15.511 18 13.508 18 9.5 18c-4.007 0-6.01 0-7.255-1.245C1 15.511 1 13.508 1 9.5Z" stroke="#FFFDFA" stroke-width="2" stroke-linecap="round" stroke-linejoin="round"/><path d="M14 5h-.009m-.897 4.95A4.052 4.052 0 0 1 9.047 14 4.045 4.045 0 0 1 5 9.95 4.052 4.052 0 0 1 9.047 5.9a4.045 4.045 0 0 1 4.046 4.05Z" stroke="#FFFDFA" stroke-width="2" stroke-linecap="round" stroke-linejoin="round"/></symbol><symbol fill="currentColor" viewBox="0 0 20 14" id="mail"><path d="M2 0C.903 0 0 .949 0 2.1v9.8C0 13.052.903 14 2 14h16c1.097 0 2-.948 2-2.1V2.1C20 .949 19.097 0 18 0H2Zm.276 1.4h15.447l-5.938 6.225a2.44 2.44 0 0 1-3.582-.002L2.276 1.4Zm16.39.988v9.223L14.269 7l4.399-4.612ZM1.334 2.39 5.724 7l-4.39 4.61V2.39Zm11.992 5.598 4.399 4.612H2.276l4.39-4.61.594.623a3.747 3.747 0 0 0 5.467.003l.598-.628Z"/></symbol><symbol fill="currentColor" viewBox="0 0 22 29" id="map"><path d="M11 14a4 4 0 1 0 0-8 4 4 0 0 0 0 8Z" stroke="#FFFDFA" stroke-width="2" stroke-miterlimit="10" stroke-linecap="round"/><path d="M11 1C1.533 1-.045 9.148 1.533 15.325c1.39 5.411 5.553 9.11 8.3 12.142.148.168.328.302.529.394a1.536 1.536 0 0 0 1.805-.394c2.745-3.032 6.91-6.73 8.3-12.142C22.045 9.148 20.467 1 11 1Z" stroke="#FFFDFA" stroke-width="2" stroke-miterlimit="10" stroke-linecap="round"/></symbol><symbol fill="currentColor" viewBox="0 0 21 27" id="pinterest"><path d="M10.823 0C3.715 0 0 4.725 0 9.956c0 2.532 1.292 5.063 3.392 6.413.646.337.485 0 .97-2.025 0-.169 0-.338-.162-.506-2.908-3.713-.485-10.97 6.3-10.97 9.854 0 7.915 14.176 1.777 14.176-1.292.168-2.423-.844-2.423-2.194v-.675c.646-1.856 1.13-3.544 1.292-5.4 0-3.544-5.008-3.038-5.008 1.688 0 .843.162 1.687.485 2.362 0 0-1.615 6.919-1.938 8.1-.323 2.025-.162 4.05.161 5.906-.161.169 0 .169 0 .169h.162c1.13-1.688 2.1-3.375 2.746-5.231.161-.844.97-3.881.97-3.881.807 1.18 2.26 1.856 3.714 1.856 5.008 0 8.562-4.556 8.562-10.125S16.477 0 10.823 0Z"/></symbol><symbol fill="currentColor" viewBox="0 0 160 42" id="platform1"><path d="M20.5 42C31.822 42 41 32.599 41 21S31.822 0 20.5 0 0 9.401 0 21c0 11.597 9.178 21 20.5 21Z"/><path d="M23.927 11.18H21.89c-3.491 0-5.236 1.736-5.236 4.337 0 2.893 1.164 4.338 3.781 6.073l2.037 1.446L16.655 32H12l5.527-8.097c-3.2-2.313-4.946-4.337-4.946-8.096 0-4.626 3.2-7.807 9.31-7.807H28v24h-4.073V11.18Z"/><path d="M61.215 32c5.127 0 9.248-3.926 9.248-12.084C70.463 11.76 66.342 8 61.213 8 56.05 8 52 11.926 52 20.084 52 28.205 56.05 32 61.215 32Zm0-3.16c-2.936 0-5.063-2.648-5.063-8.822 0-6.209 2.127-8.865 5.062-8.865 2.933 0 5.098 2.655 5.098 8.865 0 6.173-2.162 8.822-5.097 8.822Zm24.398-10.908V14.78H72.151v3.152h4.724v13.733h4.014V17.931h4.724Zm6.514 10.908c-2.06 0-4.084-.736-5.163-1.54v3.255C87.74 31.19 89.7 32 92.599 32c4.283 0 6.55-1.913 6.55-5.305 0-1.979-1.254-3.32-3.477-3.794 2.09-.672 2.97-2.146 2.97-4.028 0-2.854-2.266-4.43-5.906-4.43-2.633 0-4.356.803-5.333 1.409v3.255c1.08-.701 2.562-1.51 4.755-1.51 1.489 0 2.435.706 2.435 1.947 0 1.343-.814 2.05-2.465 2.05h-2.364v2.955h2.363c2.055 0 2.868.6 2.868 2.11 0 1.343-.981 2.181-2.868 2.181Zm9.721-14.06v16.885h6.106c3.947 0 6.749-2.015 6.749-5.978 0-3.758-2.495-5.741-6.683-5.741h-2.159v-5.168l-4.013.002Zm14.342 0v16.885h4.015V14.78h-4.015Zm-8.471 13.725h-1.856v-5.4h1.958c1.717 0 2.729.772 2.729 2.714 0 1.95-1.109 2.686-2.831 2.686Zm22.881 3.158c3.983 0 6.345-1.677 6.345-4.903 0-2.21-1.35-3.487-3.616-3.89 1.826-.502 2.971-1.78 2.971-3.793 0-2.89-1.923-4.297-5.635-4.297h-7.086v16.885h7.021v-.002Zm-.404-13.93c1.446 0 2.259.637 2.259 1.95 0 1.174-.88 1.876-2.398 1.876h-2.561v-3.825h2.7Zm.066 6.744c1.718 0 2.633.604 2.633 2.015 0 1.58-1.012 2.217-2.633 2.217h-2.766v-4.232h2.766Zm9.383-9.697v16.885h6.104c3.947 0 6.749-2.015 6.749-5.978 0-3.758-2.494-5.741-6.683-5.741h-2.157v-5.168l-4.013.002Zm14.342 0v16.885H158V14.78h-4.013Zm-8.473 13.725h-1.856v-5.4h1.958c1.718 0 2.73.772 2.73 2.714 0 1.95-1.109 2.686-2.832 2.686Z"/></symbol><symbol class="oicon" fill="currentColor" viewBox="0 0 13 18" id="tel"><path d="m2.384.42.992-.315A2.226 2.226 0 0 1 5.02.222c.516.248.929.685 1.161 1.231l.767 1.797c.2.469.256.992.16 1.497-.097.504-.341.964-.698 1.315L5.14 7.309a.228.228 0 0 0-.066.14c-.038.355.19 1.047.718 2.01.383.7.73 1.191 1.025 1.466.206.193.32.234.368.22l1.708-.551c.466-.15.965-.143 1.428.02a2.35 2.35 0 0 1 1.15.894l1.087 1.59c.331.484.485 1.078.432 1.672a2.517 2.517 0 0 1-.719 1.558l-.754.752c-.4.399-.89.682-1.424.821-.534.14-1.093.131-1.623-.025-2.34-.689-4.438-2.77-6.318-6.202C.272 8.238-.39 5.28.22 2.794c.137-.558.408-1.07.788-1.486A3.16 3.16 0 0 1 2.384.419Zm.37 1.286c-.315.1-.6.284-.828.533-.228.25-.39.557-.473.892-.511 2.089.074 4.712 1.804 7.871 1.728 3.155 3.588 5.001 5.557 5.58.318.094.653.1.974.016.32-.084.614-.254.854-.493l.753-.753a1.164 1.164 0 0 0 .13-1.468l-1.087-1.59a1.068 1.068 0 0 0-.523-.406 1.01 1.01 0 0 0-.65-.01l-1.711.553c-.994.312-1.896-.531-2.865-2.3-.654-1.191-.958-2.114-.881-2.832.039-.372.203-.716.463-.972l1.27-1.248c.162-.16.273-.369.316-.598.044-.23.019-.467-.072-.68l-.766-1.797a1.093 1.093 0 0 0-.528-.56 1.012 1.012 0 0 0-.747-.053l-.99.315Z"/></symbol><symbol fill="currentColor" viewBox="0 0 18 16" id="telegram"><path d="M17.801.139a.573.573 0 0 0-.583-.1L.636 6.513a1 1 0 0 0-.632 1.019.997.997 0 0 0 .804.89l4.428.868v4.913a1.14 1.14 0 0 0 .717 1.059 1.148 1.148 0 0 0 1.253-.267l2.18-2.255 3.402 2.975a1.139 1.139 0 0 0 1.11.229 1.134 1.134 0 0 0 .764-.83L17.985.7a.57.57 0 0 0-.184-.561ZM.985 7.459a.037.037 0 0 1 0-.027.04.04 0 0 1 .013-.007l13.067-5.103-8.452 6.04-4.615-.9-.013-.004ZM6.5 14.314a.165.165 0 0 1-.252-.022.163.163 0 0 1-.03-.09V9.967l2.43 2.122L6.5 14.315Zm7.206.577a.158.158 0 0 1-.11.118.164.164 0 0 1-.163-.033L6.516 8.925l10.257-7.333-3.068 13.3Z"/></symbol><symbol fill="currentColor" viewBox="0 0 32 21" id="vk"><path fill-rule="evenodd" clip-rule="evenodd" d="M31.746 17.094a16.086 16.086 0 0 0-2.911-4.182c-.396-.46-.81-.902-1.24-1.327l-.053-.052c-.16-.16-.318-.321-.474-.485a42.234 42.234 0 0 0 4.127-7.391l.045-.105.031-.11c.15-.512.32-1.486-.284-2.366C30.363.167 29.364.003 28.693.003h-3.08a2.993 2.993 0 0 0-1.823.516c-.54.365-.952.897-1.18 1.52a24.915 24.915 0 0 1-2.476 4.615V2.938c0-.48-.044-1.284-.544-1.961-.598-.813-1.463-.974-2.063-.974h-4.89a2.445 2.445 0 0 0-1.729.665 2.587 2.587 0 0 0-.807 1.709l-.004.063v.064c0 .684.263 1.19.474 1.507.095.142.195.272.26.354l.013.018c.069.088.114.146.16.21.12.167.291.427.34 1.096v2.078a28.327 28.327 0 0 1-2.4-5.35l-.01-.032-.012-.03c-.167-.45-.434-1.104-.97-1.604C7.324.166 6.584.003 5.91.003H2.787C2.104.003 1.283.167.67.832.07 1.486 0 2.27 0 2.686v.189l.038.183A27.729 27.729 0 0 0 5.25 14.375a14.11 14.11 0 0 0 4.641 4.642 13.636 13.636 0 0 0 6.18 1.979l.056.004h.058c.995 0 2.033-.089 2.813-.624 1.052-.722 1.135-1.83 1.135-2.383v-1.606c.27.226.605.528 1.015.934.496.511.89.954 1.23 1.34l.18.207c.264.302.523.6.759.844.296.306.662.643 1.12.893a3.24 3.24 0 0 0 1.574.392h3.127c.66 0 1.604-.16 2.269-.954.724-.863.67-1.923.442-2.683l-.042-.137-.061-.129Zm-7.842.15a36.27 36.27 0 0 0-1.313-1.431l-.004-.004c-1.86-1.846-2.728-2.166-3.342-2.166-.328 0-.688.036-.923.338a1.145 1.145 0 0 0-.201.491 3.63 3.63 0 0 0-.044.627v2.894c0 .36-.058.51-.22.62-.215.15-.674.269-1.66.269A11.622 11.622 0 0 1 10.9 17.17a12.03 12.03 0 0 1-3.96-4.006l-.01-.018-.015-.017A25.58 25.58 0 0 1 2.057 2.652c.005-.184.043-.295.106-.363.065-.07.223-.17.623-.17h3.126c.347 0 .528.08.658.2.145.138.274.371.428.786.767 2.322 1.804 4.496 2.787 6.093.49.797.973 1.462 1.41 1.932.217.234.43.429.634.567.196.133.42.238.65.238.12 0 .262-.014.398-.075a.722.722 0 0 0 .342-.327c.142-.265.181-.656.181-1.168v-4.76c-.072-1.154-.411-1.804-.74-2.266a8.437 8.437 0 0 0-.206-.272l-.018-.023a4.227 4.227 0 0 1-.167-.226.575.575 0 0 1-.116-.302.446.446 0 0 1 .145-.29.422.422 0 0 1 .299-.107h4.929c.282 0 .377.07.425.136.068.092.126.283.126.683v6.39c0 .759.34 1.273.833 1.273.568 0 .978-.355 1.694-1.091l.012-.014.01-.013A26.976 26.976 0 0 0 24.52 2.82l.006-.017c.073-.213.212-.395.395-.518a.98.98 0 0 1 .62-.166h3.153c.428 0 .567.112.614.179.048.07.082.221 0 .518a40.08 40.08 0 0 1-4.153 7.337l-.01.017c-.158.25-.332.526-.357.842-.028.342.115.651.366.984.182.277.56.656.942 1.041l.035.037c.4.404.835.841 1.184 1.264l.01.01.009.011a13.968 13.968 0 0 1 2.557 3.65c.104.366.04.555-.041.653-.095.113-.308.219-.71.219h-3.13a1.205 1.205 0 0 1-.612-.149 2.755 2.755 0 0 1-.622-.513c-.197-.202-.41-.446-.67-.744l-.203-.231Z"/></symbol><symbol fill="currentColor" viewBox="0 0 20 20" id="whatsap"><path d="m15.732 11.62-3.077-1.54a.769.769 0 0 0-.769.049l-1.413.942a3.9 3.9 0 0 1-1.538-1.538l.942-1.413a.77.77 0 0 0 .048-.769L8.387 4.274a.77.77 0 0 0-.692-.428A3.847 3.847 0 0 0 3.85 7.692a8.47 8.47 0 0 0 8.462 8.462 3.847 3.847 0 0 0 3.847-3.846.769.769 0 0 0-.426-.689Zm-3.42 2.995a6.932 6.932 0 0 1-6.925-6.923A2.308 2.308 0 0 1 7.242 5.43L8.346 7.64l-.94 1.398a.77.77 0 0 0-.07.723 5.43 5.43 0 0 0 2.9 2.899.768.768 0 0 0 .729-.064l1.405-.936 2.212 1.104a2.308 2.308 0 0 1-2.27 1.851ZM10.002 0a10.002 10.002 0 0 0-8.83 14.7L.082 17.974a1.538 1.538 0 0 0 1.946 1.946l3.275-1.091A10 10 0 1 0 10.003 0Zm0 18.462a8.45 8.45 0 0 1-4.237-1.136.769.769 0 0 0-.629-.064l-3.596 1.2 1.199-3.597a.77.77 0 0 0-.064-.629A8.46 8.46 0 0 1 14.23 2.67a8.462 8.462 0 0 1-4.226 15.792Z"/></symbol><symbol fill="currentColor" viewBox="0 0 160 42" id="yandex_reviews"><path d="M20.5 42C31.822 42 41 32.599 41 21S31.822 0 20.5 0 0 9.401 0 21c0 11.597 9.178 21 20.5 21Z"/><path d="M23.927 11.18H21.89c-3.491 0-5.236 1.736-5.236 4.337 0 2.893 1.164 4.338 3.781 6.073l2.037 1.446L16.655 32H12l5.527-8.097c-3.2-2.313-4.946-4.337-4.946-8.096 0-4.626 3.2-7.807 9.31-7.807H28v24h-4.073V11.18Z"/><path d="M61.215 32c5.127 0 9.248-3.926 9.248-12.084C70.463 11.76 66.342 8 61.213 8 56.05 8 52 11.926 52 20.084 52 28.205 56.05 32 61.215 32Zm0-3.16c-2.936 0-5.063-2.648-5.063-8.822 0-6.209 2.127-8.865 5.062-8.865 2.933 0 5.098 2.655 5.098 8.865 0 6.173-2.162 8.822-5.097 8.822Zm24.398-10.908V14.78H72.151v3.152h4.724v13.733h4.014V17.931h4.724Zm6.514 10.908c-2.06 0-4.084-.736-5.163-1.54v3.255C87.74 31.19 89.7 32 92.599 32c4.283 0 6.55-1.913 6.55-5.305 0-1.979-1.254-3.32-3.477-3.794 2.09-.672 2.97-2.146 2.97-4.028 0-2.854-2.266-4.43-5.906-4.43-2.633 0-4.356.803-5.333 1.409v3.255c1.08-.701 2.562-1.51 4.755-1.51 1.489 0 2.435.706 2.435 1.947 0 1.343-.814 2.05-2.465 2.05h-2.364v2.955h2.363c2.055 0 2.868.6 2.868 2.11 0 1.343-.981 2.181-2.868 2.181Zm9.721-14.06v16.885h6.106c3.947 0 6.749-2.015 6.749-5.978 0-3.758-2.495-5.741-6.683-5.741h-2.159v-5.168l-4.013.002Zm14.342 0v16.885h4.015V14.78h-4.015Zm-8.471 13.725h-1.856v-5.4h1.958c1.717 0 2.729.772 2.729 2.714 0 1.95-1.109 2.686-2.831 2.686Zm22.881 3.158c3.983 0 6.345-1.677 6.345-4.903 0-2.21-1.35-3.487-3.616-3.89 1.826-.502 2.971-1.78 2.971-3.793 0-2.89-1.923-4.297-5.635-4.297h-7.086v16.885h7.021v-.002Zm-.404-13.93c1.446 0 2.259.637 2.259 1.95 0 1.174-.88 1.876-2.398 1.876h-2.561v-3.825h2.7Zm.066 6.744c1.718 0 2.633.604 2.633 2.015 0 1.58-1.012 2.217-2.633 2.217h-2.766v-4.232h2.766Zm9.383-9.697v16.885h6.104c3.947 0 6.749-2.015 6.749-5.978 0-3.758-2.494-5.741-6.683-5.741h-2.157v-5.168l-4.013.002Zm14.342 0v16.885H158V14.78h-4.013Zm-8.473 13.725h-1.856v-5.4h1.958c1.718 0 2.73.772 2.73 2.714 0 1.95-1.109 2.686-2.832 2.686Z"/></symbol><symbol fill="currentColor" viewBox="0 0 30 23" id="youtube"><path d="M15 0C10.655 0 6.815.449 4.471.791 2.533 1.074.97 2.53.613 4.456.312 6.096 0 8.496 0 11.5c0 3.005.312 5.405.613 7.044.356 1.927 1.92 3.386 3.858 3.666 2.354.34 6.207.79 10.529.79s8.176-.448 10.529-.791c1.938-.279 3.502-1.738 3.858-3.665.302-1.645.613-4.048.613-7.044 0-2.996-.307-5.4-.613-7.044-.356-1.927-1.92-3.382-3.858-3.666C23.185.45 19.344 0 15 0Zm0 2.3c4.192 0 7.937.427 10.205.754a2.276 2.276 0 0 1 1.91 1.834c.28 1.518.577 3.768.577 6.612 0 2.84-.297 5.095-.577 6.613a2.252 2.252 0 0 1-1.91 1.833c-2.278.327-6.04.754-10.205.754s-7.933-.427-10.205-.754a2.264 2.264 0 0 1-1.91-1.834c-.28-1.517-.577-3.763-.577-6.612 0-2.852.297-5.095.577-6.612a2.252 2.252 0 0 1 1.91-1.834C7.058 2.727 10.808 2.3 15 2.3Zm-3.461 2.623v13.155l1.73-.97 8.077-4.6 1.73-1.008-1.73-1.006-8.077-4.6-1.73-.97Zm2.307 3.954 4.58 2.623-4.58 2.623V8.877Z"/></symbol></svg>