<svg xmlns="http://www.w3.org/2000/svg" width="105" height="40" viewBox="0 0 105 40" fill="none">
	<path d="M39.4587 14C39.7802 14.1416 39.8662 14.3744 39.9841 14.6689C41.37 18.13 41.2535 22.7499 40.1447 26.2291C39.7375 27.5074 39.1524 28.6856 38.5708 29.8975C37.5466 29.9897 36.4472 29.8918 35.413 29.8863C33.285 29.8738 31.157 29.8741 29.029 29.8871C28.3511 29.8673 27.6742 29.9412 27 30C31.4286 26.1944 36.9616 22.4375 38.8628 16.8494C39.1819 15.9112 39.321 14.9721 39.4587 14Z" fill="#1F472B"/>
	<path d="M82.4897 5.00155C82.6144 4.99296 82.7328 5.02173 82.8545 5.04641C82.8706 5.07327 82.8854 5.10064 82.8979 5.12951C83.0284 5.43378 83.0232 30.9762 82.9419 33.4408C82.9357 33.6355 82.916 33.7956 82.8453 33.9773C82.4927 34.0356 82.0198 33.9637 81.6518 33.9592C80.5839 33.9473 79.5118 33.9163 78.4453 33.9756L78.3016 33.9664C78.2677 33.916 78.195 33.8344 78.1766 33.7797C77.9826 33.1958 78.1437 29.5834 78.1434 28.6998L78.144 13.1399C78.1444 10.602 78.2772 7.98074 78.1362 5.45085C78.1269 5.28819 78.0842 5.15743 78 5.02074C79.4918 5.02599 80.9996 5.07757 82.4897 5.00155Z" fill="#1F472B"/>
	<path d="M64.1094 5.03368C66.042 4.90748 68.111 5.11653 69.859 5.99256C71.6224 6.87622 72.8214 8.33687 73.4352 10.189C73.6931 10.9666 74.2436 13.6367 73.8787 14.351C72.3167 14.1603 70.5851 14.3207 69.0068 14.3494C69.0248 14.3159 69.0405 14.2821 69.0546 14.2465C69.2988 13.6183 68.88 12.0348 68.6074 11.4101C68.2194 10.5215 67.525 9.84713 66.6122 9.49952C65.5101 9.07961 64.0886 9.11543 63.0116 9.59666C61.9781 10.0583 61.2078 10.9575 60.8104 11.9984C60.5479 12.6867 60.4004 13.432 60.3218 14.1622C60.1197 16.0458 60.2074 18.0011 60.2074 19.8934C60.2074 21.5482 60.1104 23.2804 60.3164 24.9229C60.3994 25.5856 60.5602 26.2471 60.8385 26.857C61.3225 27.9185 62.1316 28.7048 63.234 29.1169C64.6977 29.664 67.0317 29.5667 68.4385 28.9347C68.4726 28.8658 68.5027 28.7916 68.5221 28.7171C68.6382 28.2644 68.5863 23.9363 68.4024 23.6106L64.4943 23.6072C64.5308 23.5316 64.5596 23.4534 64.5753 23.3708C64.684 22.7967 64.7388 19.7992 64.4562 19.3765C64.4826 19.332 64.5104 19.2858 64.5445 19.2466C64.5833 19.2021 64.688 19.1263 64.7455 19.1082C65.5158 18.8645 71.8886 19.1691 73.4763 19.0285C73.5188 19.1238 73.5519 19.2256 73.5646 19.3292C73.7309 20.6641 73.5901 22.9917 73.5901 24.4367C73.5901 26.5834 73.7523 28.8221 73.5767 30.9526C73.5543 31.2245 73.5185 31.442 73.3389 31.659C72.1582 33.0863 68.7887 33.7386 67.0387 33.9038C63.9859 34.1917 60.478 33.9191 58.0212 31.8979C56.2405 30.4331 55.42 28.3257 55.2116 26.0897C55.0889 24.7733 55.1645 23.4297 55.1401 22.1079C55.0809 18.902 54.7327 15.4135 55.4234 12.2711C55.7528 10.7724 56.3673 9.34158 57.363 8.15731C59.0909 6.10194 61.4898 5.27187 64.1094 5.03368Z" fill="#1F472B"/>
	<path d="M91.8326 23.958C92.2722 24.7081 91.5513 26.7527 92.8113 28.3597C93.4414 29.1635 94.2977 29.6355 95.3126 29.7559C96.4767 29.894 97.7114 29.6881 98.6482 28.9438C98.7446 28.8675 98.8369 28.7866 98.9252 28.7011C99.0136 28.6156 99.0976 28.526 99.1772 28.4321C99.2566 28.3384 99.3312 28.2408 99.401 28.1396C99.4708 28.0384 99.5355 27.934 99.5949 27.8264C99.6545 27.7188 99.7085 27.6085 99.7568 27.4955C99.8054 27.3825 99.8483 27.2674 99.8855 27.1502C99.9225 27.033 99.9538 26.9143 99.9793 26.7939C100.005 26.6736 100.024 26.5523 100.037 26.4301C100.479 22.4867 95.2155 21.6276 92.5443 20.3505C91.3199 19.7653 90.1484 18.9794 89.2921 17.9095C87.9211 16.1958 87.5633 13.7687 87.8077 11.6402C88.0278 9.7256 88.8808 8.02105 90.4018 6.81601C92.4907 5.16121 95.5144 4.79235 98.0869 5.09736C100.084 5.33406 101.966 6.13755 103.231 7.74896C103.935 8.64533 104.968 10.9742 104.836 12.0696C105.027 12.5097 105.046 13.7298 104.866 14.1853C104.857 14.2075 104.848 14.229 104.838 14.2505C105.019 14.644 105.051 23.3278 104.882 23.7593C104.865 23.8035 104.846 23.8455 104.822 23.8866C105.042 24.3148 105.05 27.0824 104.89 27.5698C104.874 27.62 104.857 27.6695 104.836 27.7182C104.85 28.0321 104.724 28.3721 104.624 28.6668C103.978 30.5756 102.706 32.0683 100.893 32.957C98.3399 34.2087 94.7769 34.3088 92.105 33.3913C89.0544 32.3439 87.3392 29.7213 87.1806 26.5487C87.1483 25.9071 87.2906 24.6339 87.01 24.0743C87.0067 24.0679 87.0033 24.0616 87 24.0552C88.5373 23.9684 90.3456 24.2488 91.8326 23.958ZM104.822 23.8866C104.846 23.8455 104.865 23.8035 104.882 23.7593C105.051 23.3278 105.019 14.644 104.838 14.2505C104.235 14.5018 101.03 14.3252 100.108 14.3757C100.111 14.3688 100.113 14.362 100.116 14.3551C100.368 13.6479 99.94 11.72 99.6088 11.0429C99.2135 10.2352 98.5703 9.63957 97.7147 9.35212C96.7428 9.02546 95.4526 9.09876 94.5381 9.56272C94.4414 9.61165 94.3476 9.66525 94.2564 9.72351C94.1651 9.78175 94.077 9.84436 93.9921 9.91136C93.907 9.97833 93.8254 10.0494 93.7473 10.1244C93.6695 10.1995 93.5955 10.2782 93.5252 10.3606C93.4549 10.443 93.389 10.5287 93.3274 10.6177C93.2657 10.7066 93.2087 10.7984 93.1561 10.893C93.1033 10.9876 93.0556 11.0846 93.0128 11.1839C92.9698 11.2833 92.9318 11.3845 92.8987 11.4876C92.6024 12.4043 92.629 13.4376 93.0796 14.2994C94.7699 17.5325 101.819 16.7519 104.247 21.9566C104.47 22.4362 104.872 23.3566 104.822 23.8866Z" fill="#1F472B"/>
	<path d="M17.187 40L17.167 39.99C16.4182 39.6196 15.3344 39.4857 14.5071 39.2669C13.9018 39.107 13.3158 38.8771 12.7357 38.6453C12.5658 38.5775 12.3969 38.5074 12.2289 38.4352C12.061 38.3629 11.8941 38.2885 11.7282 38.212C11.5622 38.1353 11.3974 38.0564 11.2336 37.9755C11.0699 37.8943 10.9073 37.8111 10.7458 37.7259C10.5844 37.6407 10.4241 37.5532 10.265 37.4636C10.1059 37.3741 9.94812 37.2825 9.79155 37.1889C9.63499 37.0952 9.47975 36.9994 9.32583 36.9015C9.17188 36.8038 9.01931 36.7039 8.86811 36.602C8.71694 36.5003 8.56718 36.3965 8.41883 36.2905C8.27047 36.1848 8.1236 36.0772 7.9782 35.9676C7.83283 35.8579 7.68896 35.7463 7.54661 35.6327C7.40428 35.5194 7.26354 35.4041 7.12437 35.2868C6.9852 35.1697 6.84767 35.0507 6.71178 34.9298C6.57586 34.8091 6.44164 34.6865 6.30911 34.5621C6.17656 34.4378 6.04574 34.3118 5.91667 34.184C5.78757 34.0562 5.66026 33.9267 5.53474 33.7956C5.40921 33.6644 5.2855 33.5316 5.16362 33.3971C5.04173 33.2627 4.9217 33.1267 4.80354 32.989C4.68538 32.8514 4.56913 32.7123 4.45479 32.5717C4.34045 32.431 4.22806 32.2888 4.11761 32.1452C4.00718 32.0016 3.89873 31.8565 3.79225 31.71C3.6858 31.5635 3.58138 31.4156 3.47897 31.2664C3.37657 31.1171 3.27622 30.9665 3.17793 30.8146C3.07967 30.6627 2.98349 30.5095 2.88941 30.3551C2.79534 30.2007 2.7034 30.045 2.6136 29.8881C2.5238 29.7313 2.43616 29.5732 2.35069 29.414C2.26522 29.2549 2.18195 29.0946 2.10088 28.9332C2.01981 28.7718 1.94096 28.6094 1.86435 28.4459C1.78773 28.2825 1.71337 28.118 1.64126 27.9526C1.56916 27.7871 1.49933 27.6208 1.43179 27.4535C1.36425 27.2863 1.29901 27.1181 1.23608 26.9492C1.17315 26.7801 1.11255 26.6103 1.05428 26.4398C0.94817 26.1277 0.84992 25.8134 0.759528 25.4966C0.669136 25.1799 0.58671 24.8611 0.512249 24.5404C0.437788 24.2197 0.371381 23.8974 0.313029 23.5735C0.254679 23.2496 0.204454 22.9245 0.162354 22.5982C0.120253 22.2719 0.0863285 21.9448 0.0605798 21.6168C0.0348312 21.2889 0.0172891 20.9605 0.00795367 20.6317C-0.00138179 20.3029 -0.00249927 19.9741 0.00460122 19.6452C0.0117017 19.3164 0.0270122 18.9879 0.0505328 18.6598C0.074051 18.3317 0.105751 18.0044 0.145632 17.6778C0.185516 17.3512 0.233531 17.0258 0.289678 16.7015C0.345827 16.3772 0.410042 16.0545 0.482322 15.7333C0.554603 15.4121 0.634861 15.0928 0.723098 14.7755C0.811337 14.4582 0.907448 14.1432 1.01143 13.8305C1.11542 13.5178 1.22715 13.2078 1.34663 12.9005C1.46611 12.5931 1.59319 12.2889 1.72788 11.9877C1.86257 11.6864 2.0047 11.3886 2.15427 11.0943C4.54688 6.3994 8.6537 2.75448 13.7496 1.09432C14.0768 0.984397 14.4067 0.882588 14.7391 0.788894C15.0715 0.695201 15.4061 0.609741 15.7429 0.532516C16.0797 0.45529 16.4183 0.386396 16.7586 0.325833C17.0989 0.265269 17.4406 0.213114 17.7836 0.169366C18.1265 0.125617 18.4704 0.0903306 18.8152 0.0635062C19.16 0.0366821 19.5053 0.0183539 19.851 0.00852176C20.1967 -0.00131065 20.5425 -0.00263458 20.8883 0.00454996C21.2341 0.0117343 21.5795 0.0274179 21.9245 0.0516009C22.2695 0.0757839 22.6136 0.108436 22.9569 0.149557C23.3002 0.190678 23.6423 0.240216 23.9831 0.29817C24.3239 0.356126 24.663 0.422426 25.0004 0.497071C25.3378 0.571713 25.6731 0.654606 26.0062 0.74575C26.3394 0.836896 26.67 0.936177 26.9981 1.04359C27.3262 1.15101 27.6513 1.26643 27.9735 1.38984C28.2957 1.51326 28.6145 1.64453 28.93 1.78363C29.2455 1.92274 29.5572 2.06952 29.8651 2.22397C30.7916 2.67993 32.1654 3.33224 32.8661 4.08789L32.8954 4.2518C32.6785 4.31949 30.8896 4.03208 30.4277 4.00535C26.5479 3.78102 22.6883 5.40119 20.8503 8.88453C20.0303 10.4385 19.5886 12.3855 19.6575 14.1346C19.687 14.8847 19.8199 15.6367 19.8267 16.3856C21.0685 16.3077 23.6966 16.2526 24.8983 16.3919C24.5096 14.6976 24.8822 12.2043 25.8341 10.7212C26.4007 9.83855 27.2329 9.2611 28.2685 9.03419C29.4236 8.78108 30.8276 8.84879 31.846 9.48209C32.6808 10.0013 33.2046 10.8244 33.4127 11.762C33.9724 14.2837 32.9356 16.6004 31.57 18.6773C29.3629 22.0341 25.9746 25.0589 22.9301 27.6871C21.8434 28.6252 20.112 29.903 19.2419 30.978C19.1891 32.3368 19.2914 33.6882 19.284 35.0452L28.9538 35.0439C30.6096 35.0452 32.3608 35.1616 34 34.9629C32.6077 36.7777 28.7396 38.6463 26.5335 39.2633C25.8214 39.4627 24.3197 39.6711 23.7436 40H17.187Z" fill="#1F472B"/>
</svg>
