<svg width="16" height="10" viewBox="0 0 16 10" fill="none" xmlns="http://www.w3.org/2000/svg">
<g clip-path="url(#clip0_2014_1764)">
<path d="M1.11939 0.94637C1.00234 1.06246 0.909441 1.20057 0.846041 1.35275C0.782642 1.50493 0.75 1.66815 0.75 1.83301C0.75 1.99786 0.782642 2.16109 0.846041 2.31326C0.909441 2.46544 1.00234 2.60356 1.11939 2.71965L7.36336 8.96362C7.47945 9.08066 7.61757 9.17357 7.76974 9.23697C7.92192 9.30037 8.08514 9.33301 8.25 9.33301C8.41486 9.33301 8.57808 9.30037 8.73026 9.23697C8.88243 9.17357 9.02055 9.08066 9.13664 8.96362L15.3806 2.71965C15.4977 2.60356 15.5906 2.46544 15.654 2.31326C15.7174 2.16109 15.75 1.99786 15.75 1.83301C15.75 1.66815 15.7174 1.50493 15.654 1.35275C15.5906 1.20057 15.4977 1.06246 15.3806 0.946369C15.2645 0.829319 15.1264 0.73641 14.9742 0.67302C14.822 0.60962 14.6588 0.576969 14.494 0.576969C14.3291 0.57697 14.1659 0.60962 14.0137 0.67302C13.8615 0.73641 13.7234 0.82932 13.6073 0.94637L8.25 6.31618L2.89268 0.94637C2.77659 0.82932 2.63847 0.73641 2.48629 0.67302C2.33411 0.60962 2.17089 0.57697 2.00603 0.57697C1.84118 0.57697 1.67795 0.60962 1.52578 0.67302C1.3736 0.73641 1.23548 0.82932 1.11939 0.94637Z" fill="#1F472B"/>
</g>
<defs>
<clipPath id="clip0_2014_1764">
<rect width="10" height="16" fill="white" transform="translate(0 10) rotate(-90)"/>
</clipPath>
</defs>
</svg>
