<svg width="18" height="18" viewBox="0 0 18 18" fill="none" xmlns="http://www.w3.org/2000/svg">
	<path d="M0.868271 16.4248C0.673009 16.62 0.673009 16.9366 0.868271 17.1319C1.06353 17.3271 1.38012 17.3271 1.57538 17.1319L0.868271 16.4248ZM17.2782 1.22197C17.2782 0.945828 17.0543 0.72197 16.7782 0.72197L12.2782 0.72197C12.002 0.72197 11.7782 0.945828 11.7782 1.22197C11.7782 1.49811 12.002 1.72197 12.2782 1.72197L16.2782 1.72197V5.72197C16.2782 5.99811 16.502 6.22197 16.7782 6.22197C17.0543 6.22197 17.2782 5.99811 17.2782 5.72197L17.2782 1.22197ZM1.57538 17.1319L17.1317 1.57552L16.4246 0.868417L0.868271 16.4248L1.57538 17.1319Z" fill="#1F472B"/>
</svg>
