<svg width="30" height="30" viewBox="0 0 30 30" fill="none" xmlns="http://www.w3.org/2000/svg">
<path d="M15.494 8.00006C15.2186 8.00453 14.9986 8.23944 15.0024 8.52512V15.8668C14.4042 16.0862 14.0041 16.6726 14.0036 17.3307C14.0041 17.5622 14.0544 17.7907 14.1509 17.9994L11.1536 21.1083C11.0231 21.2382 10.9705 21.4311 11.0162 21.6126C11.0618 21.7942 11.1985 21.9359 11.3735 21.9832C11.5485 22.0306 11.7345 21.976 11.8597 21.8407L14.8571 18.7319C15.0583 18.832 15.2786 18.8842 15.5018 18.8846C16.3292 18.8846 17 18.1889 17 17.3307C16.9991 16.673 16.5991 16.0871 16.0012 15.8678V8.52512C16.0031 8.38511 15.9502 8.25029 15.8546 8.15137C15.7591 8.05246 15.629 7.99788 15.494 8.00006Z" fill="#FFFDFA"/>
<path d="M15.494 8.00006C15.2186 8.00453 14.9986 8.23944 15.0024 8.52512V15.8668C14.4042 16.0862 14.0041 16.6726 14.0036 17.3307C14.0041 17.5622 14.0544 17.7907 14.1509 17.9994L11.1536 21.1083C11.0231 21.2382 10.9705 21.4311 11.0162 21.6126C11.0618 21.7942 11.1985 21.9359 11.3735 21.9832C11.5485 22.0306 11.7345 21.976 11.8597 21.8407L14.8571 18.7319C15.0583 18.832 15.2786 18.8842 15.5018 18.8846C16.3292 18.8846 17 18.1889 17 17.3307C16.9991 16.673 16.5991 16.0871 16.0012 15.8678V8.52512C16.0031 8.38511 15.9502 8.25029 15.8546 8.15137C15.7591 8.05246 15.629 7.99788 15.494 8.00006Z" stroke="#FFFDFA"/>
<path d="M15 0C6.71386 0 0 6.71386 0 15C0 23.2861 6.71386 30 15 30C23.2861 30 30 23.2861 30 15C30 6.71386 23.2861 0 15 0ZM15 2.5C21.9043 2.5 27.5 8.0957 27.5 15C27.5 21.9043 21.9043 27.5 15 27.5C8.0957 27.5 2.5 21.9043 2.5 15C2.5 8.0957 8.0957 2.5 15 2.5Z" fill="#FFFDFA"/>
</svg>
