<svg xmlns="http://www.w3.org/2000/svg" width="63" height="22" viewBox="0 0 63 22" fill="none">
	<g clip-path="url(#clip0_366_15493)">
		<path d="M62 1H2V22H62V1Z" stroke="white"/>
		<path d="M11.0692 6.4627V14.8843H10V6.4627H11.0692ZM16.2817 6.4627V14.8843H15.2292V6.4627H16.2817ZM18.8744 6.4627V7.3766H12.6421V6.4627H18.8744ZM29.7759 6.4627V14.8843H28.7012L24.6405 8.38882V14.8843H23.5713V6.4627H24.6405L28.7178 12.9756V6.4627H29.7759ZM34.4567 15C34.0393 15 33.6608 14.9267 33.3211 14.7802C32.9849 14.6298 32.6951 14.4197 32.4513 14.1498C32.2112 13.8798 32.0266 13.5598 31.8973 13.1896C31.768 12.8194 31.7034 12.4145 31.7034 11.9749V11.732C31.7034 11.223 31.7754 10.7699 31.9195 10.3727C32.0635 9.97171 32.2592 9.63239 32.5067 9.35478C32.7541 9.07712 33.0348 8.86697 33.3487 8.72429C33.6627 8.58161 33.9877 8.5103 34.3237 8.5103C34.7522 8.5103 35.1215 8.58741 35.4317 8.74164C35.7457 8.89588 36.0023 9.11182 36.2018 9.38949C36.4012 9.66324 36.5489 9.98717 36.6449 10.3612C36.741 10.7314 36.789 11.1363 36.789 11.5759V12.0559H32.3128V11.1825H35.7641V11.1016C35.7494 10.8239 35.6939 10.554 35.5979 10.2918C35.5056 10.0296 35.3579 9.81363 35.1547 9.64394C34.9516 9.4743 34.6746 9.38949 34.3237 9.38949C34.0911 9.38949 33.8769 9.44149 33.6811 9.54562C33.4854 9.64589 33.3174 9.79627 33.177 9.99676C33.0367 10.1973 32.9277 10.4422 32.8502 10.7314C32.7726 11.0206 32.7338 11.3541 32.7338 11.732V11.9749C32.7338 12.2719 32.7726 12.5514 32.8502 12.8136C32.9314 13.072 33.0477 13.2995 33.1992 13.4961C33.3543 13.6928 33.5408 13.8471 33.7587 13.9589C33.9803 14.0707 34.2314 14.1266 34.5121 14.1266C34.874 14.1266 35.1806 14.0495 35.4317 13.8953C35.6829 13.741 35.9026 13.5347 36.091 13.2764L36.7114 13.7911C36.5822 13.9955 36.4178 14.1902 36.2184 14.3753C36.0189 14.5604 35.7734 14.7108 35.4816 14.8265C35.1935 14.9422 34.8519 15 34.4567 15ZM39.4643 9.60929V14.8843H38.4394V8.62597H39.4366L39.4643 9.60929ZM41.3367 8.59126L41.3312 9.58613C41.2463 9.56682 41.165 9.55527 41.0875 9.55142C41.0136 9.54372 40.9286 9.53987 40.8327 9.53987C40.5963 9.53987 40.3876 9.57843 40.2067 9.65554C40.0256 9.73266 39.8724 9.84063 39.7468 9.97947C39.6213 10.1182 39.5216 10.2841 39.4477 10.4769C39.3775 10.6658 39.3313 10.8741 39.3092 11.1016L39.0211 11.275C39.0211 10.8972 39.0562 10.5424 39.1264 10.2108C39.2002 9.87919 39.3129 9.58613 39.4643 9.33162C39.6157 9.07327 39.8078 8.87278 40.0405 8.73009C40.2768 8.58356 40.5575 8.5103 40.8825 8.5103C40.9564 8.5103 41.0413 8.51995 41.1373 8.5392C41.2334 8.55466 41.2998 8.57195 41.3367 8.59126ZM46.4053 13.6697V6H47.4357V14.8843H46.494L46.4053 13.6697ZM42.3723 11.8246V11.7031C42.3723 11.2249 42.4277 10.7911 42.5385 10.4017C42.653 10.0084 42.8136 9.67094 43.0204 9.38949C43.231 9.10797 43.4803 8.89203 43.7683 8.74164C44.0601 8.58741 44.3851 8.5103 44.7433 8.5103C45.1201 8.5103 45.4487 8.57971 45.7294 8.71849C46.0138 8.85347 46.2539 9.05206 46.4496 9.31427C46.6491 9.57262 46.806 9.88494 46.9205 10.2513C47.035 10.6176 47.1144 11.0321 47.1587 11.4948V12.027C47.1181 12.4859 47.0387 12.8984 46.9205 13.2648C46.806 13.6311 46.6491 13.9435 46.4496 14.2018C46.2539 14.4602 46.0138 14.6587 45.7294 14.7976C45.4451 14.9325 45.1127 15 44.7323 15C44.3814 15 44.0601 14.9209 43.7683 14.7628C43.4803 14.6048 43.231 14.383 43.0204 14.0977C42.8136 13.8123 42.653 13.4769 42.5385 13.0913C42.4277 12.7018 42.3723 12.2796 42.3723 11.8246ZM43.4027 11.7031V11.8246C43.4027 12.1369 43.4322 12.4299 43.4913 12.7038C43.5541 12.9775 43.6501 13.2185 43.7794 13.4268C43.9087 13.635 44.073 13.7988 44.2724 13.9184C44.4719 14.0341 44.7101 14.0919 44.9871 14.0919C45.3269 14.0919 45.6057 14.0167 45.8236 13.8663C46.0452 13.7159 46.2225 13.5174 46.3554 13.2706C46.4884 13.0238 46.5918 12.7558 46.6657 12.4666V11.0727C46.6214 10.8606 46.5567 10.6562 46.4718 10.4595C46.3905 10.259 46.2834 10.0816 46.1505 9.92741C46.0212 9.76926 45.8605 9.64394 45.6685 9.55142C45.4801 9.45885 45.2567 9.41259 44.9981 9.41259C44.7175 9.41259 44.4756 9.4743 44.2724 9.59768C44.073 9.7172 43.9087 9.88304 43.7794 10.0951C43.6501 10.3033 43.5541 10.5463 43.4913 10.8239C43.4322 11.0977 43.4027 11.3908 43.4027 11.7031ZM52.9752 13.2243C52.9752 13.07 52.9419 12.9274 52.8754 12.7963C52.8126 12.6613 52.6815 12.5399 52.4821 12.4319C52.2864 12.3201 51.9909 12.2236 51.5957 12.1427C51.2633 12.0694 50.9623 11.9826 50.6927 11.8824C50.4268 11.7822 50.1997 11.6607 50.0113 11.518C49.8266 11.3753 49.6845 11.2076 49.5847 11.0148C49.485 10.822 49.4351 10.5964 49.4351 10.338C49.4351 10.0913 49.4869 9.85799 49.5903 9.63819C49.6974 9.41839 49.8469 9.22365 50.039 9.05396C50.2347 8.88433 50.4692 8.7513 50.7426 8.65487C51.0159 8.55851 51.3206 8.5103 51.6566 8.5103C52.1368 8.5103 52.5467 8.59896 52.8865 8.77635C53.2263 8.95374 53.4867 9.1909 53.6676 9.48781C53.8486 9.78087 53.9391 10.1067 53.9391 10.4653H52.9142C52.9142 10.2918 52.8643 10.124 52.7646 9.96211C52.6686 9.79627 52.5264 9.65939 52.338 9.55142C52.1534 9.44345 51.9262 9.38949 51.6566 9.38949C51.3722 9.38949 51.1414 9.43575 50.9641 9.52826C50.7905 9.61699 50.6631 9.73071 50.5819 9.86954C50.5044 10.0084 50.4656 10.1549 50.4656 10.3091C50.4656 10.4248 50.484 10.5289 50.521 10.6214C50.5616 10.7102 50.6318 10.793 50.7315 10.8702C50.8312 10.9435 50.9716 11.0128 51.1525 11.0784C51.3335 11.144 51.5643 11.2095 51.845 11.275C52.3362 11.3908 52.7406 11.5295 53.0582 11.6915C53.3758 11.8535 53.6122 12.0521 53.7673 12.2873C53.9225 12.5225 54 12.8078 54 13.1433C54 13.4171 53.9446 13.6678 53.8338 13.8953C53.7267 14.1228 53.5697 14.3194 53.3629 14.4852C53.1598 14.6472 52.916 14.7745 52.6317 14.867C52.351 14.9556 52.0352 15 51.6844 15C51.1562 15 50.7093 14.9017 50.3437 14.705C49.9781 14.5083 49.7011 14.2538 49.5127 13.9415C49.3244 13.6292 49.2302 13.2995 49.2302 12.9525H50.2606C50.2753 13.2455 50.3566 13.4788 50.5044 13.6523C50.6521 13.822 50.833 13.9435 51.0472 14.0167C51.2614 14.0861 51.4738 14.1208 51.6844 14.1208C51.965 14.1208 52.1996 14.0822 52.3879 14.0051C52.5799 13.928 52.7258 13.822 52.8256 13.687C52.9253 13.5521 52.9752 13.3978 52.9752 13.2243Z" fill="white"/>
	</g>
	<defs>
		<clipPath id="clip0_366_15493">
			<rect width="63" height="22" fill="white"/>
		</clipPath>
	</defs>
</svg>
