<svg width="19" height="19" viewBox="0 0 19 19" fill="none" xmlns="http://www.w3.org/2000/svg">
	<path d="M1 9.5C1 5.49337 1 3.48916 2.24458 2.24458C3.48916 1 5.49247 1 9.5 1C13.5066 1 15.5108 1 16.7554 2.24458C18 3.48916 18 5.49247 18 9.5C18 13.5066 18 15.5108 16.7554 16.7554C15.5108 18 13.5075 18 9.5 18C5.49337 18 3.48916 18 2.24458 16.7554C1 15.5108 1 13.5075 1 9.5Z" stroke="#FFFDFA" stroke-width="2" stroke-linecap="round" stroke-linejoin="round"/>
	<path d="M14 5H13.991M13.0935 9.95C13.0935 11.0241 12.6672 12.0543 11.9083 12.8138C11.1493 13.5733 10.12 14 9.04676 14C7.97349 14 6.94418 13.5733 6.18527 12.8138C5.42635 12.0543 5 11.0241 5 9.95C5 8.87587 5.42635 7.84574 6.18527 7.08622C6.94418 6.3267 7.97349 5.9 9.04676 5.9C10.12 5.9 11.1493 6.3267 11.9083 7.08622C12.6672 7.84574 13.0935 8.87587 13.0935 9.95Z" stroke="#FFFDFA" stroke-width="2" stroke-linecap="round" stroke-linejoin="round"/>
</svg>
