<svg width="20" height="14" viewBox="0 0 20 14" fill="none" xmlns="http://www.w3.org/2000/svg">
	<path d="M2 0C0.903353 0 0 0.948521 0 2.1V11.9C0 13.0515 0.903353 14 2 14H18C19.0966 14 20 13.0515 20 11.9V2.1C20 0.948521 19.0966 0 18 0H2ZM2.27604 1.4H17.7227L11.7852 7.62481C10.79 8.66809 9.19789 8.66798 8.20312 7.62344L2.27604 1.4ZM18.6667 2.38848V11.6115L14.2682 7L18.6667 2.38848ZM1.33333 2.38984L5.72396 7L1.33333 11.6102V2.38984ZM13.3255 7.98848L17.724 12.6H2.27604L6.66667 7.98984L7.26042 8.61328C8.76432 10.1924 11.2218 10.1935 12.7266 8.61602L13.3255 7.98848Z" fill="#1F472B"/>
</svg>
