<svg width="22" height="29" viewBox="0 0 22 29" fill="none" xmlns="http://www.w3.org/2000/svg">
	<path d="M11 14C12.0609 14 13.0783 13.5786 13.8284 12.8284C14.5786 12.0783 15 11.0609 15 10C15 8.93913 14.5786 7.92172 13.8284 7.17157C13.0783 6.42143 12.0609 6 11 6C9.93913 6 8.92172 6.42143 8.17157 7.17157C7.42143 7.92172 7 8.93913 7 10C7 11.0609 7.42143 12.0783 8.17157 12.8284C8.92172 13.5786 9.93913 14 11 14Z" stroke="#FFFDFA" stroke-width="2" stroke-miterlimit="10" stroke-linecap="round"/>
	<path d="M11 1C1.53322 1 -0.0450445 9.14813 1.53322 15.3245C2.92215 20.7362 7.08612 24.4345 9.8329 27.4672C9.98082 27.635 10.161 27.7691 10.362 27.8609C10.563 27.9526 10.7803 28 11 28C11.2197 28 11.437 27.9526 11.638 27.8609C11.839 27.7691 12.0192 27.635 12.1671 27.4672C14.9125 24.4345 19.0778 20.7362 20.4668 15.3245C22.045 9.14813 20.4668 1 11 1Z" stroke="#FFFDFA" stroke-width="2" stroke-miterlimit="10" stroke-linecap="round"/>
</svg>
