<svg width="21" height="27" viewBox="0 0 21 27" fill="none" xmlns="http://www.w3.org/2000/svg">
	<path d="M10.8231 0C3.71538 0 0 4.725 0 9.95625C0 12.4875 1.29231 15.0187 3.39231 16.3687C4.03846 16.7062 3.87692 16.3687 4.36154 14.3438C4.36154 14.175 4.36154 14.0062 4.2 13.8375C1.29231 10.125 3.71538 2.86875 10.5 2.86875C20.3538 2.86875 18.4154 17.0438 12.2769 17.0438C10.9846 17.2125 9.85385 16.2 9.85385 14.85V14.175C10.5 12.3187 10.9846 10.6312 11.1462 8.775C11.1462 5.23125 6.13846 5.7375 6.13846 10.4625C6.13846 11.3062 6.3 12.15 6.62308 12.825C6.62308 12.825 5.00769 19.7437 4.68462 20.925C4.36154 22.95 4.52308 24.975 4.84615 26.8312C4.68462 27 4.84615 27 4.84615 27H5.00769C6.13846 25.3125 7.10769 23.625 7.75385 21.7687C7.91538 20.925 8.72308 17.8875 8.72308 17.8875C9.53077 19.0688 10.9846 19.7437 12.4385 19.7437C17.4462 19.7437 21 15.1875 21 9.61875C21 4.05 16.4769 0 10.8231 0Z" fill="#FFFDFA"/>
</svg>
