<svg class="icon" width="13" height="18" viewBox="0 0 13 18" fill="none" xmlns="http://www.w3.org/2000/svg">
	<path d="M2.38438 0.419296L3.37592 0.104893C3.9191 -0.0677828 4.50332 -0.0262151 5.01956 0.22184C5.5358 0.469895 5.9488 0.907491 6.18149 1.45297L6.94788 3.24981C7.14794 3.719 7.20365 4.24245 7.10719 4.74671C7.01074 5.25097 6.76695 5.71074 6.41004 6.06152L5.13981 7.30928C5.1027 7.34573 5.07919 7.39498 5.07354 7.44812C5.03615 7.80372 5.26471 8.49613 5.79234 9.45904C6.17469 10.1586 6.5222 10.6504 6.81703 10.9254C7.02349 11.1179 7.1365 11.1591 7.18493 11.1448L8.89274 10.5939C9.35912 10.4435 9.85846 10.4508 10.3207 10.6146C10.783 10.7785 11.1851 11.0907 11.4706 11.5076L12.5581 13.0984C12.8892 13.5821 13.0426 14.176 12.9898 14.7698C12.937 15.3637 12.6816 15.9172 12.271 16.3275L11.5173 17.0799C11.1178 17.4788 10.6271 17.7618 10.093 17.9014C9.55887 18.0409 8.99959 18.0323 8.46961 17.8762C6.12966 17.1874 4.03186 15.1057 2.15242 11.6742C0.271283 8.23815 -0.389748 5.27865 0.220304 2.79478C0.357248 2.23614 0.628381 1.72411 1.00757 1.30804C1.38676 0.89197 1.86037 0.585887 2.38438 0.419296ZM2.75313 1.70647C2.43866 1.80617 2.15385 1.98958 1.92616 2.23904C1.69847 2.48849 1.53557 2.79557 1.45315 3.13068C0.941661 5.21953 1.52707 7.84314 3.25697 11.0024C4.98517 14.1572 6.84507 16.0033 8.81372 16.5828C9.13173 16.6763 9.46729 16.6814 9.78772 16.5976C10.1081 16.5138 10.4025 16.3439 10.6422 16.1045L11.395 15.3521C11.5817 15.1656 11.6979 14.9139 11.722 14.6439C11.7461 14.3739 11.6764 14.1039 11.5258 13.884L10.4383 12.294C10.3085 12.1043 10.1256 11.9622 9.91532 11.8877C9.70502 11.8131 9.47787 11.8099 9.26573 11.8784L7.55368 12.4311C6.55958 12.7428 5.6581 11.8999 4.68949 10.1308C4.03526 8.93951 3.73108 8.01691 3.80755 7.29943C3.84663 6.9268 4.01147 6.58284 4.27061 6.32666L5.54085 5.0789C5.70301 4.91937 5.81372 4.71031 5.85745 4.48107C5.90119 4.25183 5.87574 4.01391 5.7847 3.80069L5.01916 2.00385C4.91337 1.7559 4.72563 1.557 4.49096 1.44426C4.25629 1.33152 3.99072 1.31265 3.74382 1.39117L2.75313 1.70647Z" fill="#1F472B"/>
</svg>
