<svg width="18" height="16" viewBox="0 0 18 16" fill="none" xmlns="http://www.w3.org/2000/svg">
	<path d="M17.8013 0.138975C17.7224 0.0709574 17.6263 0.0257342 17.5235 0.00818505C17.4207 -0.00936406 17.3151 0.0014272 17.2179 0.0393944L0.636043 6.51293C0.434356 6.59166 0.263715 6.73354 0.149749 6.91726C0.0357828 7.10098 -0.015357 7.31663 0.00400993 7.53182C0.0233768 7.74701 0.112205 7.95012 0.257154 8.11065C0.402103 8.27118 0.595348 8.38047 0.807868 8.4221L5.23603 9.28975V14.2027C5.23613 14.4304 5.30444 14.653 5.43222 14.8417C5.55999 15.0305 5.74139 15.1768 5.95314 15.262C6.16489 15.3472 6.39732 15.3673 6.62061 15.3198C6.84389 15.2722 7.04785 15.1592 7.20629 14.9952L9.38601 12.74L12.7881 15.7151C12.9958 15.8985 13.2635 15.9998 13.5409 16C13.662 15.9998 13.7824 15.9808 13.8976 15.9437C14.0866 15.884 14.2567 15.776 14.3907 15.6303C14.5248 15.4847 14.6183 15.3065 14.6618 15.1136L17.9854 0.699726C18.0088 0.598394 18.004 0.492622 17.9716 0.393808C17.9391 0.294995 17.8803 0.206885 17.8013 0.138975ZM0.98542 7.45813C0.982287 7.4497 0.982287 7.44044 0.98542 7.43201C0.989108 7.42915 0.993259 7.42694 0.997693 7.42548L14.0654 2.3224L5.61323 8.36251L0.997693 7.46139L0.98542 7.45813ZM6.49936 14.3145C6.4768 14.3378 6.4478 14.3539 6.41603 14.3608C6.38426 14.3676 6.35117 14.3649 6.32098 14.3529C6.29079 14.3409 6.26486 14.3202 6.2465 14.2934C6.22814 14.2667 6.21818 14.2351 6.21789 14.2027V9.96723L8.64716 12.0894L6.49936 14.3145ZM13.7054 14.8924C13.6993 14.92 13.686 14.9454 13.6667 14.9661C13.6474 14.9868 13.6229 15.0019 13.5957 15.0099C13.568 15.0196 13.5382 15.0217 13.5094 15.016C13.4806 15.0102 13.4539 14.9968 13.4321 14.9773L6.51572 8.9249L16.7728 1.59187L13.7054 14.8924Z" fill="#FFFDFA"/>
</svg>

