<svg width="32" height="21" viewBox="0 0 32 21" fill="none" xmlns="http://www.w3.org/2000/svg">
	<path fill-rule="evenodd" clip-rule="evenodd" d="M31.7457 17.0942C30.9997 15.5484 30.017 14.1362 28.835 12.9118C28.4391 12.4525 28.0252 12.01 27.5943 11.5854L27.5422 11.5332C27.382 11.3735 27.2239 11.2116 27.0678 11.0478C28.6839 8.73481 30.0666 6.25828 31.1945 3.6566L31.2398 3.55219L31.2713 3.44212C31.4207 2.92991 31.5907 1.95627 30.9875 1.07577C30.3623 0.167041 29.3629 0.00335753 28.6924 0.00335753H25.6118C24.9667 -0.027334 24.3286 0.15302 23.7893 0.518557C23.2499 0.884095 22.8368 1.41604 22.6093 2.03811C21.9463 3.66318 21.1163 5.21053 20.1332 6.6537V2.93837C20.1332 2.45861 20.0894 1.6543 19.5889 0.976992C18.9912 0.164219 18.1261 0.00335753 17.5256 0.00335753H12.6366C11.9986 -0.0117503 11.3794 0.226251 10.9073 0.668074C10.4351 1.1099 10.1461 1.72169 10.1002 2.37677L10.0961 2.44027V2.50376C10.0961 3.18813 10.3593 3.69329 10.5705 4.01078C10.6651 4.1533 10.7651 4.28312 10.8296 4.36496L10.8433 4.3833C10.9118 4.47079 10.9571 4.52864 11.0023 4.59355C11.123 4.76006 11.2944 5.01969 11.3437 5.68854V7.76704C10.3624 6.07555 9.55776 4.28199 8.94308 2.41628L8.93211 2.38523L8.92114 2.3556C8.75388 1.90547 8.48653 1.25074 7.95047 0.751222C7.32529 0.16563 6.58495 0.00335753 5.91178 0.00335753H2.78589C2.1045 0.00335753 1.28326 0.167042 0.670422 0.831653C0.0685504 1.48639 0 2.27094 0 2.68579V2.87487L0.0383882 3.05831C0.902484 7.19432 2.68622 11.0679 5.24959 14.3751C6.42086 16.2763 8.01108 17.8665 9.89125 19.0169C11.7714 20.1672 13.8886 20.8452 16.0709 20.9958L16.1272 21H16.1847C17.1801 21 18.2179 20.9111 18.998 20.3763C20.0496 19.6538 20.1332 18.5462 20.1332 17.993V16.3872C20.4033 16.613 20.7379 16.915 21.1478 17.3214C21.6441 17.8322 22.0389 18.2752 22.3776 18.6619L22.5586 18.8679C22.8218 19.1698 23.0809 19.4676 23.3167 19.7117C23.6129 20.0179 23.9789 20.3551 24.4368 20.6049C24.9345 20.8744 25.4569 20.9972 26.0107 20.9972H29.138C29.7975 20.9972 30.7421 20.8363 31.407 20.0433C32.1309 19.1797 32.0761 18.12 31.8485 17.3595L31.8074 17.2226L31.7457 17.0942ZM23.9035 17.2437C23.4787 16.7548 23.0412 16.2777 22.5915 15.8129L22.5873 15.8087C20.7269 13.963 19.859 13.6427 19.2448 13.6427C18.9172 13.6427 18.5566 13.6794 18.3221 13.9814C18.2178 14.1261 18.1487 14.2945 18.1206 14.4724C18.0879 14.6795 18.0732 14.8892 18.0767 15.0989V17.993C18.0767 18.3528 18.0191 18.5038 17.8574 18.6139C17.6421 18.7621 17.1828 18.882 16.1971 18.882C14.3246 18.7509 12.509 18.1642 10.8997 17.1702C9.29046 16.1762 7.93336 14.8033 6.94004 13.1644L6.92907 13.146L6.91536 13.1291C4.52731 10.0724 2.86376 6.48522 2.05651 2.65193C2.06199 2.46849 2.10038 2.35701 2.16345 2.28928C2.22789 2.21873 2.38555 2.11995 2.78589 2.11995H5.91178C6.25865 2.11995 6.43962 2.19897 6.56987 2.31891C6.71519 2.4572 6.84407 2.69003 6.99762 3.10488C7.76538 5.42749 8.80187 7.60053 9.78488 9.19785C10.2757 9.99511 10.7583 10.6597 11.1943 11.1296C11.4123 11.3638 11.6248 11.5586 11.829 11.6969C12.0251 11.8295 12.2486 11.9353 12.4789 11.9353C12.5996 11.9353 12.7408 11.9212 12.8765 11.8605C13.0233 11.7942 13.144 11.6788 13.2193 11.5332C13.3605 11.2679 13.4002 10.877 13.4002 10.3648V5.60528C13.3276 4.45103 12.9889 3.80053 12.6599 3.33911C12.5931 3.24691 12.5246 3.15611 12.4542 3.06678L12.4364 3.0442C12.3782 2.97089 12.3224 2.89559 12.2691 2.81843C12.2024 2.73171 12.1619 2.6267 12.1526 2.51646C12.1634 2.40434 12.2153 2.30068 12.2979 2.22671C12.3805 2.15273 12.4874 2.11404 12.5968 2.11854H17.5256C17.808 2.11854 17.9026 2.1891 17.9506 2.25542C18.0191 2.34714 18.0767 2.53763 18.0767 2.93837V9.32767C18.0767 10.0868 18.4167 10.6005 18.9103 10.6005C19.4779 10.6005 19.8878 10.2463 20.6035 9.5097L20.6158 9.49559L20.6268 9.48289C22.2324 7.4684 23.5441 5.22379 24.5205 2.81984L24.5259 2.80291C24.5989 2.59026 24.7377 2.40814 24.921 2.28451C25.1043 2.16088 25.3219 2.10257 25.5405 2.11854H28.6938C29.1216 2.11854 29.2614 2.23143 29.308 2.29775C29.356 2.3683 29.3903 2.51929 29.308 2.81561C28.182 5.4069 26.7898 7.86675 25.1552 10.1531L25.1443 10.1701C24.9866 10.4198 24.8125 10.6964 24.7878 11.0125C24.7604 11.354 24.903 11.663 25.1539 11.996C25.3362 12.2726 25.7132 12.6521 26.0957 13.0374L26.1314 13.074C26.5317 13.4776 26.9663 13.915 27.3146 14.3384L27.3242 14.3482L27.3338 14.3595C28.372 15.4257 29.2355 16.658 29.8907 18.0085C29.9949 18.3754 29.9318 18.5645 29.8496 18.6619C29.755 18.7748 29.5425 18.8806 29.1394 18.8806H26.0107C25.7975 18.8866 25.5863 18.8355 25.3979 18.7324C25.1672 18.5934 24.9575 18.4203 24.7755 18.2188C24.5794 18.017 24.3669 17.7729 24.1064 17.4752L23.9035 17.2437Z" fill="#FFFDFA"/>
</svg>
