<svg width="160" height="42" viewBox="0 0 160 42" fill="none" xmlns="http://www.w3.org/2000/svg">
	<path d="M20.5 42C31.8224 42 41 32.5986 41 21C41 9.40144 31.8224 0 20.5 0C9.17759 0 0 9.40144 0 21C0 32.5972 9.17759 42 20.5 42Z" fill="#1F472B"/>
	<path d="M23.9267 11.1808H21.8907C18.4 11.1808 16.6547 12.9165 16.6547 15.5174C16.6547 18.4102 17.8187 19.8554 20.436 21.5898L22.4733 23.0362L16.6547 32H12L17.5267 23.9027C14.3267 21.5898 12.5813 19.5661 12.5813 15.8067C12.5813 11.1808 15.7813 8 21.8907 8H28V32H23.9267V11.1808Z" fill="#F3F4F1"/>
	<path d="M61.2149 32C66.3419 32 70.4634 28.0741 70.4634 19.9164C70.4634 11.7588 66.3419 8 61.2136 8C56.0491 8 52 11.9259 52 20.0836C52 28.2052 56.0491 32 61.2149 32ZM61.2149 28.8403C58.2786 28.8403 56.1525 26.1922 56.1525 20.018C56.1525 13.8091 58.2786 11.1533 61.2136 11.1533C64.1474 11.1533 66.3122 13.8078 66.3122 20.018C66.3122 26.1909 64.15 28.8403 61.2149 28.8403ZM85.6131 17.9317V14.7796H72.1513V17.9317H76.8751V31.6645H80.8894V17.9317H85.6131ZM92.1269 28.8403C90.0668 28.8403 88.0429 28.1037 86.9637 27.3003V30.5551C87.7404 31.1901 89.6997 32 92.5986 32C96.8817 32 99.1486 30.0872 99.1486 26.6948C99.1486 24.7164 97.895 23.3744 95.672 22.9013C97.7618 22.229 98.642 20.7546 98.642 18.8726C98.642 16.0189 96.3764 14.4429 92.7356 14.4429C90.103 14.4429 88.3802 15.2463 87.4031 15.8517V19.1066C88.4823 18.406 89.9647 17.5961 92.1579 17.5961C93.6468 17.5961 94.5928 18.3032 94.5928 19.5437C94.5928 20.887 93.7786 21.594 92.1282 21.594H89.7644V24.5493H92.1269C94.1818 24.5493 94.9948 25.1484 94.9948 26.6588C94.9948 28.0021 94.0138 28.8403 92.1269 28.8403ZM101.848 14.7796V31.6645H107.954C111.901 31.6645 114.703 29.6501 114.703 25.687C114.703 21.9295 112.208 19.946 108.02 19.946H105.861V14.7784L101.848 14.7796ZM116.19 14.7796V31.6645H120.205V14.7796H116.19ZM107.719 28.5048H105.863V23.1057H107.821C109.538 23.1057 110.55 23.877 110.55 25.8194C110.55 27.7682 109.441 28.5048 107.719 28.5048ZM130.6 31.6632C134.583 31.6632 136.945 29.9856 136.945 26.7604C136.945 24.5493 135.595 23.2728 133.329 22.8705C135.155 22.3679 136.3 21.0901 136.3 19.077C136.3 16.1873 134.377 14.7796 130.665 14.7796H123.579V31.6645H130.6V31.6632ZM130.196 17.7337C131.642 17.7337 132.455 18.37 132.455 19.6825C132.455 20.8574 131.575 21.5593 130.057 21.5593H127.496V17.7337H130.196ZM130.262 24.4773C131.98 24.4773 132.895 25.0815 132.895 26.4917C132.895 28.0728 131.883 28.7092 130.262 28.7092H127.496V24.4773H130.262ZM139.645 14.7796V31.6645H145.749C149.696 31.6645 152.498 29.6501 152.498 25.687C152.498 21.9295 150.004 19.946 145.815 19.946H143.658V14.7784L139.645 14.7796ZM153.987 14.7796V31.6645H158V14.7796H153.987ZM145.514 28.5048H143.658V23.1057H145.616C147.334 23.1057 148.346 23.877 148.346 25.8194C148.346 27.7682 147.237 28.5048 145.514 28.5048Z" fill="#1F472B"/>
</svg>
