<svg width="30" height="23" viewBox="0 0 30 23" fill="none" xmlns="http://www.w3.org/2000/svg">
	<path d="M15 0C10.6546 0 6.81462 0.4485 4.47115 0.7912C2.53269 1.0741 0.969231 2.52885 0.612692 4.45625C0.311538 6.09615 0 8.49505 0 11.5C0 14.5049 0.311538 16.905 0.612692 18.5437C0.969231 20.4711 2.53269 21.9305 4.47115 22.2099C6.825 22.5503 10.6777 23 15 23C19.3223 23 23.1762 22.5515 25.5288 22.2088C27.4673 21.9305 29.0308 20.4711 29.3873 18.5437C29.6885 16.8993 30 14.4957 30 11.5C30 8.50425 29.6931 6.10075 29.3873 4.45625C29.0308 2.52885 27.4673 1.0741 25.5288 0.79005C23.1854 0.44965 19.3442 0 15 0ZM15 2.3C19.1919 2.3 22.9373 2.72665 25.2046 3.0544C25.6755 3.12219 26.1132 3.33555 26.456 3.66442C26.7988 3.99329 27.0295 4.42108 27.1154 4.8875C27.3946 6.4055 27.6923 8.65605 27.6923 11.5C27.6923 14.3393 27.3946 16.5945 27.1154 18.1125C27.0311 18.5796 26.801 19.0084 26.4579 19.3375C26.1148 19.6667 25.6762 19.8795 25.2046 19.9456C22.9269 20.2733 19.1642 20.7 15 20.7C10.8346 20.7 7.06731 20.2733 4.79538 19.9456C4.3238 19.8795 3.8852 19.6667 3.5421 19.3375C3.19899 19.0084 2.9689 18.5796 2.88462 18.1125C2.60538 16.5945 2.30769 14.3485 2.30769 11.5C2.30769 8.648 2.60538 6.4055 2.88462 4.8875C2.9689 4.42035 3.19899 3.99165 3.5421 3.66249C3.8852 3.33333 4.3238 3.12052 4.79538 3.0544C7.05808 2.72665 10.8081 2.3 15 2.3ZM11.5385 4.92315V18.078L13.2692 17.1074L21.3462 12.5074L23.0769 11.5L21.3462 10.4937L13.2692 5.89375L11.5385 4.92315ZM13.8462 8.87685L18.4258 11.5L13.8462 14.1231V8.87685Z" fill="#FFFDFA"/>
</svg>
